<?xml version="1.0" encoding="UTF-8"?>
<!DOCTYPE svg PUBLIC "-//W3C//DTD SVG 1.1//EN" "http://www.w3.org/Graphics/SVG/1.1/DTD/svg11.dtd">
<svg xmlns="http://www.w3.org/2000/svg" version="1.1" width="200px" height="200px" style="shape-rendering:geometricPrecision; text-rendering:geometricPrecision; image-rendering:optimizeQuality; fill-rule:evenodd; clip-rule:evenodd" xmlns:xlink="http://www.w3.org/1999/xlink">
<g><path style="opacity:0.983" fill="#ffa500" d="M 39.5,0.5 C 79.5014,0.333345 119.501,0.500012 159.5,1C 182.333,3.83333 195.167,16.6667 198,39.5C 198.667,79.5 198.667,119.5 198,159.5C 195.167,182.333 182.333,195.167 159.5,198C 119.5,198.667 79.5,198.667 39.5,198C 16.6667,195.167 3.83333,182.333 1,159.5C 0.0391366,117.138 0.37247,74.8046 2,32.5C 7.9313,14.0643 20.4313,3.39768 39.5,0.5 Z"/></g>
<g><path style="opacity:1" fill="#ffcf72" d="M 40.5,8.5 C 78.2068,8.03113 115.873,8.53113 153.5,10C 170.218,14.7062 179.718,25.5395 182,42.5C 175.991,30.5787 166.491,23.0787 153.5,20C 119.167,19.3333 84.8333,19.3333 50.5,20C 34,24.5 23.5,35 19,51.5C 18.3333,86.5 18.3333,121.5 19,156.5C 22.9898,171.823 32.4898,181.99 47.5,187C 25.9112,185.417 13.0778,173.917 9,152.5C 8.33333,115.167 8.33333,77.8333 9,40.5C 13.6827,23.9848 24.1827,13.3181 40.5,8.5 Z"/></g>
<g><path style="opacity:1" fill="#fffdfb" d="M 36.5,29.5 C 77.8333,29.5 119.167,29.5 160.5,29.5C 161.055,33.9971 160.389,38.1638 158.5,42C 138.429,47.5593 118.263,52.7259 98,57.5C 78.1128,52.5698 58.2794,47.4031 38.5,42C 36.6112,38.1638 35.9445,33.9971 36.5,29.5 Z"/></g>
</svg>
